<svg width="200" height="200" viewBox="0 0 200 200" fill="none" xmlns="http://www.w3.org/2000/svg">
<rect width="200" height="200" rx="100" fill="white"/>
<path d="M56.503 144.605C55.1997 144.605 54.1647 144.221 53.398 143.455C52.6314 142.611 52.248 141.461 52.248 140.005V88.0246C52.248 79.8979 54.548 73.4962 59.148 68.8196C63.748 64.1429 70.073 61.8046 78.123 61.8046C82.7997 61.8046 87.093 63.0312 91.003 65.4846C94.9897 67.8612 97.9797 71.0429 99.973 75.0296C101.966 70.9662 104.88 67.7462 108.713 65.3696C112.623 62.9929 116.993 61.8046 121.823 61.8046C129.873 61.8046 136.198 64.1429 140.798 68.8196C145.398 73.4196 147.698 79.8212 147.698 88.0246V140.005C147.698 141.461 147.276 142.611 146.433 143.455C145.666 144.221 144.631 144.605 143.328 144.605C141.948 144.605 140.875 144.221 140.108 143.455C139.418 142.611 139.073 141.461 139.073 140.005V88.0246C139.073 81.9679 137.693 77.3296 134.933 74.1096C132.25 70.8896 127.803 69.2796 121.593 69.2796C116.15 69.2796 111.895 70.9662 108.828 74.3396C105.761 77.6362 104.228 82.1979 104.228 88.0246V140.005C104.228 141.461 103.845 142.611 103.078 143.455C102.311 144.221 101.276 144.605 99.973 144.605C98.6697 144.605 97.6347 144.221 96.868 143.455C96.178 142.611 95.833 141.461 95.833 140.005V88.0246C95.833 82.3512 94.223 77.8279 91.003 74.4546C87.783 71.0046 83.5664 69.2796 78.353 69.2796C72.143 69.2796 67.658 70.8896 64.898 74.1096C62.2147 77.3296 60.873 81.9679 60.873 88.0246V140.005C60.873 141.461 60.4897 142.611 59.723 143.455C58.9564 144.221 57.883 144.605 56.503 144.605Z" fill="black"/>
</svg>
